<svg xmlns="http://www.w3.org/2000/svg" width="35" height="35" viewBox="0 0 35 35">
    <defs>
        <style>
            .cls-1{fill:none}
        </style>
    </defs>
    <g id="Group_43" transform="translate(-86 -54)">
        <path id="Rectangle_7" d="M0 0H35V35H0z" class="cls-1" transform="translate(86 54)"/>
        <g id="Group_40" transform="translate(-164)">
            <path id="Rectangle_3" fill="#fff" d="M0 0H31V31H0z" transform="translate(252 56)"/>
            <g id="noun_Arrow_Back_1876906" transform="translate(255 58)">
                <path id="Rectangle" d="M0 0H26V26H0z" class="cls-1"/>
                <path id="Path" d="M21.175 7.189H2.816l6.017-5.842a.784.784 0 0 0-.02-1.112.843.843 0 0 0-1.146-.02L.242 7.424a.763.763 0 0 0-.165.235.743.743 0 0 0-.038.117.073.073 0 0 0 0 .032A.8.8 0 0 0 0 7.99v.155a.768.768 0 0 0 .231.417l7.436 7.2a.843.843 0 0 0 1.166 0 .78.78 0 0 0 0-1.132L2.816 8.791h18.359a.8.8 0 1 0 0-1.6z" transform="translate(2 5)"/>
            </g>
        </g>
    </g>
</svg>
