<svg width="44" height="44" viewBox="0 0 44 44" fill="none" xmlns="http://www.w3.org/2000/svg">
<rect width="44" height="44" transform="matrix(1 0 0 -1 0 44)" fill="white"/>
<path d="M39.7604 22.1031H34.3008H22.0167V21.8301C22.0167 20.1704 20.6736 18.8273 19.0139 18.8273H14.6462C12.9865 18.8273 11.6435 20.1704 11.6435 21.8301V22.1031H11.0975V10.9109C11.0975 10.4632 10.7262 10.0919 10.2785 10.0919H4.81894C4.37125 10.0919 4 10.4632 4 10.9109V34.9331C4 35.3808 4.37125 35.7521 4.81894 35.7521H10.2785C10.7262 35.7521 11.0975 35.3808 11.0975 34.9331V31.3844H33.4819V34.9331C33.4819 35.3808 33.8531 35.7521 34.3008 35.7521H39.7604C40.2081 35.7521 40.5794 35.3808 40.5794 34.9331V22.922C40.5794 22.4743 40.2081 22.1031 39.7604 22.1031ZM13.2813 21.8301C13.2813 21.0766 13.8928 20.4652 14.6462 20.4652H19.0139C19.7673 20.4652 20.3788 21.0766 20.3788 21.8301V22.1031H13.2813V21.8301ZM9.45961 34.1142H5.63788V11.7298H9.45961V22.922V30.5654V34.1142ZM11.0975 29.7465V23.7409H12.4624H21.1978H33.4819V29.7465H11.0975ZM38.9415 34.1142H35.1198V30.5654V23.7409H38.9415V34.1142Z" fill="#0091FF"/>
<path d="M27.7493 16.6435H29.6602V18.5543C29.6602 19.002 30.0314 19.3733 30.4791 19.3733H33.7549C34.2026 19.3733 34.5738 19.002 34.5738 18.5543V16.6435H36.4847C36.9324 16.6435 37.3036 16.2722 37.3036 15.8245V12.5487C37.3036 12.1011 36.9324 11.7298 36.4847 11.7298H34.5738V9.81894C34.5738 9.37125 34.2026 9 33.7549 9H30.4791C30.0314 9 29.6602 9.37125 29.6602 9.81894V11.7298H27.7493C27.3016 11.7298 26.9304 12.1011 26.9304 12.5487V15.8245C26.9304 16.2722 27.3016 16.6435 27.7493 16.6435ZM28.5682 13.3677H30.4791C30.9268 13.3677 31.298 12.9964 31.298 12.5487V10.6379H32.9359V12.5487C32.9359 12.9964 33.3072 13.3677 33.7549 13.3677H35.6657V15.0056H33.7549C33.3072 15.0056 32.9359 15.3768 32.9359 15.8245V17.7354H31.298V15.8245C31.298 15.3768 30.9268 15.0056 30.4791 15.0056H28.5682V13.3677Z" fill="#0091FF"/>
</svg>
