<svg width="44" height="44" viewBox="0 0 44 44" fill="none" xmlns="http://www.w3.org/2000/svg">
<rect width="44" height="44" transform="matrix(1 0 0 -1 0 44)" fill="white"/>
<path d="M35.72 15.56C33.67 13.52 30.74 12.65 27.93 13.17C26.39 8.33 21.9 5 16.75 5C10.27 5 5 10.27 5 16.75C5 21.13 7.41 25.12 11.29 27.16C11.4 27.22 11.52 27.25 11.64 27.25C11.91 27.25 12.17 27.1 12.3 26.85C12.49 26.48 12.35 26.03 11.98 25.84C8.82 24.18 6.8 21.03 6.54 17.51H21.39L19.44 19.46L15.55 23.35C14.48 24.42 13.7 25.76 13.31 27.22C12.48 30.24 13.34 33.5 15.55 35.73C17.26 37.43 19.5 38.28 21.74 38.28C23.98 38.28 26.22 37.43 27.93 35.73L31.82 31.84L35.71 27.95C37.36 26.29 38.27 24.09 38.27 21.76C38.27 19.43 37.37 17.22 35.72 15.56ZM6.54 16C6.93 10.7 11.35 6.5 16.75 6.5C21.22 6.5 25.12 9.36 26.49 13.55C26.42 13.57 26.36 13.61 26.29 13.64C26.17 13.69 26.06 13.74 25.94 13.79C25.73 13.88 25.53 13.98 25.33 14.09C25.22 14.15 25.1 14.21 24.99 14.28C24.79 14.4 24.59 14.54 24.4 14.68C24.31 14.75 24.21 14.81 24.12 14.88C23.85 15.09 23.58 15.32 23.33 15.57L22.89 16.01H6.54V16ZM26.88 34.66C24.05 37.48 19.45 37.48 16.62 34.66C14.78 32.81 14.07 30.11 14.76 27.61C15.09 26.4 15.73 25.29 16.62 24.4L19.98 21.04L30.24 31.3L26.88 34.66ZM34.66 26.88L31.3 30.24L21.04 19.98L24.4 16.62C25.29 15.73 26.39 15.09 27.61 14.76C30.11 14.07 32.82 14.78 34.66 16.62C36.03 18 36.78 19.82 36.78 21.75C36.78 23.69 36.03 25.51 34.66 26.88Z" fill="#0091FF"/>
</svg>
