<svg xmlns="http://www.w3.org/2000/svg" width="28" height="28" viewBox="0 0 28 28">
    <g fill="none" fill-rule="evenodd">
        <g transform="translate(-117 -13)">
            <circle cx="131" cy="27" r="13.5" stroke="#979797"/>
            <path fill="#FFF" fill-rule="nonzero" d="M131.169 22.285c.363 0 .646-.1.848-.303.202-.202.303-.48.303-.83 0-.37-.1-.654-.303-.853-.202-.2-.485-.299-.848-.299-.375 0-.664.1-.866.299-.202.199-.303.483-.303.852 0 .352.101.629.303.83.202.203.49.304.866.304zm1.02 11.162v-9.72h-2.066v9.72h2.065z"/>
        </g>
    </g>
</svg>
