<svg xmlns="http://www.w3.org/2000/svg" width="223" height="44" viewBox="0 0 223 44">
    <g fill="none" fill-rule="evenodd">
        <text fill="#0052CC" font-family="Lato-Light, Lato" font-size="42.637" font-weight="300" letter-spacing="-2.4">
            <tspan x="148" y="44">CRE</tspan>
        </text>
        <text fill="#000" font-family="Lato-Regular, Lato" font-size="42.637" letter-spacing="-.028">
            <tspan x="53.23" y="43.498">LIMB</tspan>
        </text>
        <path fill="#0052CC" d="M3.637 43.494h35.765c2 0 3.637-1.637 3.637-3.637V4.092c0-2-1.637-3.637-3.637-3.637H3.637C1.637.455 0 2.09 0 4.092v35.765c0 2 1.637 3.637 3.637 3.637"/>
        <path stroke="#FFF" stroke-width="3.637" d="M25.611 27.581a7.88 7.88 0 1 1-15.76 0 7.88 7.88 0 1 1 15.76 0z"/>
        <path stroke="#FFF" stroke-width="3.031" d="M23.187 22.126H43.19M23.793 32.43H43.19M11.366 22.429V0M23.187 22.429V0"/>
    </g>
</svg>
