<svg xmlns="http://www.w3.org/2000/svg" width="19" height="19" viewBox="0 0 19 19">
    <g fill="none" fill-rule="evenodd">
        <g fill="#C1C1C1" fill-rule="nonzero">
            <g>
                <path d="M7.922 15.826c1.688 0 3.33-.546 4.685-1.553L17.343 19 19 17.341l-4.724-4.739c2.17-2.951 2.031-7.008-.336-9.804C11.574.003 7.598-.802 4.333.855 1.067 2.512-.635 6.196.219 9.76c.854 3.564 4.041 6.074 7.703 6.067zm0-13.481c3.073 0 5.564 2.493 5.564 5.568 0 3.076-2.491 5.569-5.564 5.569s-5.564-2.493-5.564-5.569c0-3.075 2.49-5.568 5.564-5.568z" transform="translate(-77 -17) translate(77 17)"/>
            </g>
        </g>
    </g>
</svg>
