<svg width="44" height="44" viewBox="0 0 44 44" fill="none" xmlns="http://www.w3.org/2000/svg">
<rect width="44" height="44" transform="matrix(1 0 0 -1 0 44)" fill="white"/>
<path d="M37.8056 12.2678L36.072 10.5341L31.7379 6.20004C31.4711 5.93332 31.0711 5.93332 30.8044 6.20004C30.5376 6.46675 30.5376 6.86682 30.8044 7.13353L32.0713 8.40042L27.6705 12.8012L26.8037 11.9344C26.6703 11.801 26.2702 11.601 25.8702 11.9344L11.9344 25.8702C11.6677 26.1369 11.6677 26.5369 11.9344 26.8037L12.8012 27.6705L11.4676 29.004C11.2676 29.2041 11.2009 29.4041 11.3343 29.6708L11.801 31.2711L6.20004 36.8721C5.93332 37.1388 5.93332 37.5389 6.20004 37.8056C6.33339 37.939 6.73346 38.2057 7.13353 37.8056L12.7345 32.2046L14.3348 32.6714C14.4015 32.6714 14.6682 32.8047 15.0016 32.538L16.3352 31.2044L17.202 32.0713C17.602 32.4713 18.0021 32.2046 18.1355 32.0713L32.0046 18.2021C32.2713 17.9354 32.2713 17.5354 32.0046 17.2686L31.1378 16.4018L35.5385 12.0011L36.8054 13.2679C37.2055 13.6013 37.6056 13.4013 37.7389 13.2679C38.0723 12.9346 38.0723 12.5345 37.8056 12.2678ZM14.3348 31.2711L13.0679 30.871L12.6678 29.6042L13.668 28.604L15.335 30.2709L14.3348 31.2711ZM17.6687 30.671C16.4018 29.4041 13.3346 26.3369 13.3346 26.3369L26.2702 13.4013L30.6043 17.7354L17.6687 30.671ZM30.2043 15.4017L28.5373 13.7347L33.0047 9.33392L34.6717 11.0009L30.2043 15.4017Z" fill="#0091FF"/>
<path d="M25.07 15.9351C24.8033 16.2018 24.8033 16.6019 25.07 16.8686L27.137 18.9356C27.4704 19.269 27.9372 19.069 28.0705 18.9356C28.3372 18.6689 28.3372 18.2688 28.0705 18.0021L26.0035 15.9351C25.7368 15.6684 25.3367 15.6684 25.07 15.9351Z" fill="#0091FF"/>
<path d="M23.7364 18.2021C23.4697 17.9354 23.0697 17.9354 22.8029 18.2021C22.5362 18.4689 22.5362 18.8689 22.8029 19.1356L24.87 21.2027C25.3367 21.5361 25.6701 21.336 25.8035 21.2027C26.0702 20.936 26.0702 20.5359 25.8035 20.2692L23.7364 18.2021Z" fill="#0091FF"/>
<path d="M21.4027 20.5359C21.136 20.2692 20.7359 20.2692 20.4692 20.5359C20.2025 20.8026 20.2025 21.2027 20.4692 21.4694L22.5362 23.5364C22.9363 23.9365 23.3364 23.6698 23.4697 23.5364C23.7364 23.2697 23.7364 22.8696 23.4697 22.6029L21.4027 20.5359Z" fill="#0091FF"/>
<path d="M19.1356 22.8029C18.8689 22.5362 18.4689 22.5362 18.2021 22.8029C17.9354 23.0697 17.9354 23.4697 18.2021 23.7364L20.2692 25.8035C20.4025 25.9368 20.8693 26.2035 21.2027 25.8035C21.4694 25.5368 21.4694 25.1367 21.2027 24.87L19.1356 22.8029Z" fill="#0091FF"/>
<path d="M16.8019 25.1367C16.5352 24.87 16.1351 24.87 15.8684 25.1367C15.6017 25.4034 15.6017 25.8035 15.8684 26.0702L17.9354 28.1372C18.0688 28.2706 18.5355 28.5373 18.8689 28.1372C19.1356 27.8705 19.1356 27.4704 18.8689 27.2037L16.8019 25.1367Z" fill="#0091FF"/>
</svg>
