<svg xmlns="http://www.w3.org/2000/svg" width="14" height="13" viewBox="0 0 14 13">
    <g fill="none" fill-rule="evenodd">
        <g fill="red" fill-rule="nonzero">
            <g>
                <g>
                    <path d="M10.923 8.598c-.335-.414-.51-.931-.51-1.463V5.924c0-1.758-1.298-3.206-2.976-3.427V1.89c0-.236-.19-.429-.422-.429-.234 0-.423.193-.423.429v.62c-1.677.207-2.975 1.67-2.975 3.428V7.15c0 .532-.175 1.049-.51 1.463l-.526.65c-.277.34-.335.797-.146 1.196.19.399.57.65 1.007.65h1.633c.073.99.904 1.788 1.925 1.788 1.02 0 1.852-.798 1.94-1.803h1.633c.437 0 .817-.25 1.006-.65.19-.399.131-.857-.146-1.196l-.51-.65zM7 12.025c-.54 0-.992-.399-1.08-.93h2.16c-.088.531-.54.93-1.08.93zm3.82-1.935c-.014.044-.087.148-.232.148h-7.16c-.147 0-.22-.104-.234-.148-.015-.045-.059-.163.029-.28l.525-.65c.452-.562.7-1.271.7-1.995V5.953C4.448 4.52 5.6 3.368 7 3.368c1.4 0 2.552 1.167 2.552 2.585v1.212c0 .724.248 1.433.7 1.994l.525.65c.102.104.058.222.044.28zM10.165 1.743c-.19-.148-.452-.103-.598.074-.146.192-.102.458.073.606.743.59 1.297 1.418 1.56 2.334.058.192.219.31.408.31.044 0 .073 0 .117-.015.233-.059.365-.295.292-.532-.292-1.093-.948-2.082-1.852-2.777zM2.8 4.757c.248-.916.802-1.743 1.56-2.334.19-.148.22-.414.073-.606-.146-.192-.408-.222-.598-.074-.904.694-1.56 1.684-1.866 2.777-.059.237.073.473.291.532.044.015.073.015.117.015.19 0 .365-.118.423-.31zM13.927 4.683c-.32-1.802-1.298-3.398-2.77-4.491-.19-.148-.453-.103-.599.089-.146.192-.102.458.088.605 1.298.96 2.158 2.364 2.435 3.945.044.206.219.354.423.354h.073c.233-.044.38-.266.35-.502zM3.354.886c.19-.147.233-.413.088-.605-.146-.192-.409-.237-.598-.089C1.37 1.285.394 2.881.073 4.683c-.044.236.117.458.35.502h.073c.204 0 .379-.147.423-.354C1.196 3.25 2.07 1.847 3.354.886z" transform="translate(-259 -19) translate(259 19)"/>
                </g>
            </g>
        </g>
    </g>
</svg>
