<svg width="44" height="44" viewBox="0 0 44 44" fill="none" xmlns="http://www.w3.org/2000/svg">
<rect width="44" height="44" transform="matrix(1 0 0 -1 0 44)" fill="white"/>
<path d="M38.8167 14.0418H25.3854V13.4016C25.3854 12.5527 25.0485 11.7386 24.4488 11.1383C23.849 10.538 23.0356 10.2008 22.1875 10.2008C21.3394 10.2008 20.526 10.538 19.9262 11.1383C19.3265 11.7386 18.9896 12.5527 18.9896 13.4016V14.0418H16.9723C16.1979 14.0418 15.4497 14.3232 14.8668 14.8337C14.8322 14.8639 14.8009 14.8978 14.7735 14.9348L9.33699 22.2839C8.78279 22.7494 8.08229 23.0045 7.35876 23.004C6.20321 23.0056 5.09543 23.4657 4.27833 24.2835C3.46124 25.1014 3.00152 26.2102 3 27.3668V31.9663C3 32.6454 3.26954 33.2968 3.74932 33.777C4.2291 34.2572 4.87982 34.527 5.55833 34.527H6.36677C6.77805 35.1196 7.32655 35.6038 7.9654 35.9382C8.60425 36.2726 9.31448 36.4473 10.0354 36.4473C10.7564 36.4473 11.4666 36.2726 12.1054 35.9382C12.7443 35.6038 13.2928 35.1196 13.7041 34.527H30.6709C31.0822 35.1196 31.6307 35.6038 32.2696 35.9382C32.9084 36.2726 33.6186 36.4473 34.3396 36.4473C35.0605 36.4473 35.7707 36.2726 36.4096 35.9382C37.0485 35.6038 37.5969 35.1196 38.0082 34.527H38.8167C39.4952 34.527 40.1459 34.2572 40.6257 33.777C41.1055 33.2968 41.375 32.6454 41.375 31.9663V16.6024C41.375 15.9233 41.1055 15.272 40.6257 14.7918C40.1459 14.3116 39.4952 14.0418 38.8167 14.0418ZM20.2688 13.4016C20.2688 12.8923 20.4709 12.4038 20.8307 12.0436C21.1906 11.6835 21.6786 11.4811 22.1875 11.4811C22.6964 11.4811 23.1844 11.6835 23.5443 12.0436C23.9041 12.4038 24.1063 12.8923 24.1063 13.4016V14.0418H20.2688V13.4016ZM10.0354 35.1671C9.40293 35.1671 8.78464 34.9794 8.25875 34.6277C7.73285 34.276 7.32297 33.7761 7.08093 33.1912C6.83888 32.6063 6.77555 31.9628 6.89895 31.3419C7.02234 30.721 7.32691 30.1506 7.77415 29.703C8.22138 29.2554 8.7912 28.9505 9.41153 28.827C10.0319 28.7035 10.6749 28.7669 11.2592 29.0092C11.8435 29.2514 12.343 29.6617 12.6944 30.188C13.0458 30.7144 13.2333 31.3333 13.2333 31.9663C13.2323 32.8149 12.8951 33.6285 12.2956 34.2285C11.6961 34.8286 10.8832 35.1661 10.0354 35.1671V35.1671ZM34.3396 35.1671C33.7071 35.1671 33.0888 34.9794 32.5629 34.6277C32.037 34.276 31.6271 33.7761 31.3851 33.1912C31.1431 32.6063 31.0797 31.9628 31.2031 31.3419C31.3265 30.721 31.6311 30.1506 32.0783 29.703C32.5256 29.2554 33.0954 28.9505 33.7157 28.827C34.336 28.7035 34.979 28.7669 35.5634 29.0092C36.1477 29.2514 36.6472 29.6617 36.9986 30.188C37.3499 30.7144 37.5375 31.3333 37.5375 31.9663C37.5365 32.8149 37.1992 33.6285 36.5997 34.2285C36.0002 34.8286 35.1874 35.1661 34.3396 35.1671V35.1671ZM40.0958 31.9663C40.0958 32.3059 39.9611 32.6315 39.7212 32.8716C39.4813 33.1118 39.1559 33.2466 38.8167 33.2466H38.6248C38.8272 32.5771 38.8702 31.8695 38.7504 31.1804C38.6305 30.4913 38.3512 29.8398 37.9347 29.2782C37.5182 28.7165 36.9761 28.2602 36.3518 27.9458C35.7276 27.6314 35.0384 27.4677 34.3396 27.4677C33.6407 27.4677 32.9516 27.6314 32.3273 27.9458C31.7031 28.2602 31.161 28.7165 30.7445 29.2782C30.328 29.8398 30.0487 30.4913 29.9288 31.1804C29.809 31.8695 29.852 32.5771 30.0544 33.2466H14.3206C14.523 32.5771 14.566 31.8695 14.4462 31.1804C14.3264 30.4913 14.047 29.8398 13.6305 29.2782C13.214 28.7165 12.6719 28.2602 12.0477 27.9458C11.4234 27.6314 10.7343 27.4677 10.0354 27.4677C9.33658 27.4677 8.64744 27.6314 8.02317 27.9458C7.39889 28.2602 6.85682 28.7165 6.44032 29.2782C6.02383 29.8398 5.74448 30.4913 5.62465 31.1804C5.50481 31.8695 5.54781 32.5771 5.75021 33.2466H5.55833C5.21908 33.2466 4.89372 33.1118 4.65383 32.8716C4.41394 32.6315 4.27917 32.3059 4.27917 31.9663V27.3668C4.28001 26.5495 4.60474 25.766 5.18209 25.1881C5.75945 24.6102 6.54226 24.2852 7.35876 24.2844C8.41409 24.2842 9.43343 23.9004 10.2273 23.2044C10.2619 23.1746 10.293 23.1408 10.32 23.1039L15.7565 15.7561C16.0994 15.4754 16.5287 15.322 16.9717 15.3221H38.8167C39.1559 15.3221 39.4813 15.457 39.7212 15.6971C39.9611 15.9372 40.0958 16.2629 40.0958 16.6024V31.9663Z" fill="#0091FF"/>
<path d="M17.0708 17.2426C16.6507 17.2415 16.2345 17.3238 15.8463 17.4846C15.4582 17.6455 15.1057 17.8818 14.8093 18.1798C14.7791 18.2104 14.7519 18.2439 14.728 18.2797L11.4208 23.2915C11.3571 23.388 11.3208 23.4999 11.3156 23.6154C11.3104 23.7308 11.3365 23.8456 11.3912 23.9474C11.4459 24.0492 11.5271 24.1343 11.6262 24.1936C11.7254 24.253 11.8387 24.2843 11.9542 24.2844H22.1875V23.0041H20.2688V18.5229H22.1875V17.2426H17.0708ZM15.7571 19.0434C16.1122 18.7078 16.5825 18.5215 17.0708 18.5229H18.9896V23.0041H13.1432L15.7571 19.0434Z" fill="#0091FF"/>
<path d="M38.1771 17.2426H35.6187V18.5229H37.5375V23.004H35.6187V24.2844H38.1771C38.3467 24.2844 38.5094 24.2169 38.6293 24.0969C38.7493 23.9768 38.8167 23.814 38.8167 23.6442V17.8827C38.8167 17.713 38.7493 17.5501 38.6293 17.4301C38.5094 17.31 38.3467 17.2426 38.1771 17.2426Z" fill="#0091FF"/>
<path d="M29.2229 19.1631H27.9437V20.4434H26.6646V21.7237H27.9437V23.0041H29.2229V21.7237H30.5021V20.4434H29.2229V19.1631Z" fill="#0091FF"/>
<path d="M19.6292 25.5647H15.7917V26.845H19.6292V25.5647Z" fill="#0091FF"/>
<path d="M10.0354 30.0458C9.65593 30.0458 9.28496 30.1585 8.96942 30.3695C8.65388 30.5805 8.40795 30.8805 8.26273 31.2314C8.1175 31.5823 8.0795 31.9685 8.15354 32.341C8.22757 32.7135 8.41032 33.0557 8.67866 33.3243C8.947 33.5929 9.28889 33.7758 9.66109 33.8499C10.0333 33.924 10.4191 33.886 10.7697 33.7406C11.1203 33.5953 11.42 33.3491 11.6308 33.0333C11.8416 32.7175 11.9542 32.3462 11.9542 31.9663C11.9542 31.457 11.752 30.9685 11.3922 30.6083C11.0323 30.2482 10.5443 30.0458 10.0354 30.0458ZM10.0354 32.6065C9.90892 32.6065 9.78527 32.5689 9.68009 32.4986C9.57491 32.4283 9.49293 32.3283 9.44452 32.2113C9.39611 32.0943 9.38345 31.9656 9.40813 31.8414C9.4328 31.7173 9.49372 31.6032 9.58317 31.5137C9.67261 31.4241 9.78658 31.3632 9.91064 31.3385C10.0347 31.3138 10.1633 31.3264 10.2802 31.3749C10.397 31.4233 10.4969 31.5054 10.5672 31.6107C10.6375 31.7159 10.675 31.8397 10.675 31.9663C10.675 32.1361 10.6076 32.2989 10.4877 32.419C10.3677 32.539 10.205 32.6065 10.0354 32.6065Z" fill="#0091FF"/>
<path d="M34.3396 30.0458C33.9601 30.0458 33.5891 30.1585 33.2736 30.3695C32.9581 30.5805 32.7121 30.8805 32.5669 31.2314C32.4217 31.5823 32.3837 31.9685 32.4577 32.341C32.5317 32.7135 32.7145 33.0557 32.9828 33.3243C33.2512 33.5929 33.5931 33.7758 33.9653 33.8499C34.3375 33.924 34.7233 33.886 35.0739 33.7406C35.4245 33.5953 35.7241 33.3491 35.935 33.0333C36.1458 32.7175 36.2583 32.3462 36.2583 31.9663C36.2583 31.457 36.0562 30.9685 35.6963 30.6083C35.3365 30.2482 34.8485 30.0458 34.3396 30.0458ZM34.3396 32.6065C34.2131 32.6065 34.0894 32.5689 33.9843 32.4986C33.8791 32.4283 33.7971 32.3283 33.7487 32.2113C33.7003 32.0943 33.6876 31.9656 33.7123 31.8414C33.737 31.7173 33.7979 31.6032 33.8873 31.5137C33.9768 31.4241 34.0907 31.3632 34.2148 31.3385C34.3389 31.3138 34.4675 31.3264 34.5843 31.3749C34.7012 31.4233 34.8011 31.5054 34.8714 31.6107C34.9417 31.7159 34.9792 31.8397 34.9792 31.9663C34.9792 32.1361 34.9118 32.2989 34.7918 32.419C34.6719 32.539 34.5092 32.6065 34.3396 32.6065Z" fill="#0091FF"/>
<path d="M28.5833 16.6024C27.6978 16.6024 26.8323 16.8653 26.096 17.3577C25.3597 17.85 24.7859 18.5499 24.447 19.3687C24.1082 20.1875 24.0195 21.0886 24.1923 21.9578C24.365 22.8271 24.7914 23.6255 25.4176 24.2522C26.0437 24.8789 26.8414 25.3057 27.7099 25.4786C28.5784 25.6515 29.4786 25.5628 30.2966 25.2236C31.1147 24.8844 31.8139 24.3101 32.3059 23.5732C32.7978 22.8363 33.0604 21.9699 33.0604 21.0836C33.0591 19.8955 32.5869 18.7565 31.7476 17.9164C30.9083 17.0764 29.7703 16.6038 28.5833 16.6024V16.6024ZM28.5833 24.2844C27.9508 24.2844 27.3326 24.0967 26.8067 23.745C26.2808 23.3933 25.8709 22.8934 25.6288 22.3085C25.3868 21.7236 25.3235 21.08 25.4469 20.4591C25.5703 19.8382 25.8748 19.2679 26.3221 18.8203C26.7693 18.3726 27.3391 18.0678 27.9594 17.9443C28.5798 17.8208 29.2228 17.8842 29.8071 18.1264C30.3915 18.3687 30.8909 18.7789 31.2423 19.3053C31.5937 19.8317 31.7812 20.4505 31.7812 21.0836C31.7802 21.9322 31.443 22.7457 30.8435 23.3458C30.244 23.9458 29.4312 24.2834 28.5833 24.2844V24.2844Z" fill="#0091FF"/>
<path d="M22.8271 7H21.5479V8.92049H22.8271V7Z" fill="#0091FF"/>
<path d="M25.5726 7.82778L24.2936 9.10791L25.1981 10.0132L26.4771 8.7331L25.5726 7.82778Z" fill="#0091FF"/>
<path d="M18.8023 7.82783L17.8978 8.73315L19.1767 10.0133L20.0812 9.10796L18.8023 7.82783Z" fill="#0091FF"/>
</svg>
