<?xml version="1.0" encoding="UTF-8"?>
<svg width="10px" height="10px" viewBox="0 0 10 10" version="1.1" xmlns="http://www.w3.org/2000/svg" xmlns:xlink="http://www.w3.org/1999/xlink">
    <!-- Generator: Sketch 64 (93537) - https://sketch.com -->
    <title>Cancel</title>
    <desc>Created with Sketch.</desc>
    <g id="Page-1" stroke="none" stroke-width="1" fill="none" fill-rule="evenodd">
        <g id="Artboard" transform="translate(-204.000000, -36.000000)" fill="#000000" fill-rule="nonzero">
            <g id="noun_cancel_1428469" transform="translate(200.000000, 32.000000)">
                <g id="Group">
                    <g id="Path">
                        <path d="M8.1,8.28 L3.24,8.28 L3.24,8.28 C3.04117751,8.28 2.88,8.44117751 2.88,8.64 L2.88,9.36 L2.88,9.36 C2.88,9.55882249 3.04117751,9.72 3.24,9.72 L8.1,9.72 L8.1,9.72 C8.19941126,9.72 8.28,9.80058874 8.28,9.9 L8.28,14.76 L8.28,14.76 C8.28,14.9588225 8.44117751,15.12 8.64,15.12 L9.36,15.12 L9.36,15.12 C9.55882249,15.12 9.72,14.9588225 9.72,14.76 L9.72,9.9 L9.72,9.9 C9.72,9.80058874 9.80058874,9.72 9.9,9.72 L14.76,9.72 L14.76,9.72 C14.9588225,9.72 15.12,9.55882249 15.12,9.36 L15.12,8.64 L15.12,8.64 C15.12,8.44117751 14.9588225,8.28 14.76,8.28 L9.9,8.28 L9.9,8.28 C9.80058874,8.28 9.72,8.19941126 9.72,8.1 L9.72,3.24 L9.72,3.24 C9.72,3.04117751 9.55882249,2.88 9.36,2.88 L8.64,2.88 L8.64,2.88 C8.44117751,2.88 8.28,3.04117751 8.28,3.24 L8.28,8.1 L8.28,8.1 C8.28,8.19941126 8.19941126,8.28 8.1,8.28 Z" transform="translate(9.000000, 9.000000) rotate(45.000000) translate(-9.000000, -9.000000) "></path>
                    </g>
                </g>
            </g>
        </g>
    </g>
</svg>