<svg xmlns="http://www.w3.org/2000/svg" width="33" height="20" viewBox="0 0 33 20">
    <g fill="none" fill-rule="evenodd">
        <g fill-rule="nonzero">
            <g>
                <g>
                    <g>
                        <path fill="#FFF" d="M17.38 14.241c-.621-.31-1.587-.896-2.587-1.586-.793.173-1.759 0-2.724-.724-.241-.172-.483-.38-.724-.62-.586-.587-1.207-1.38-1.897-2.242-.069-.069-.103-.138-.172-.207-.173-.207-.138-.552.069-.724.241-.207.586-.172.793.069.069.069.103.138.172.207.897 1.103 1.724 2.172 2.414 2.655C14 12 15 11.655 15.517 11.034c.414-.517.552-1.275-.034-1.793-.828-.758-1.62-1.724-2.414-2.69-.897-1.103-1.862-2.24-2.69-2.896-.482-.345-1.448-.793-2.482-1.241l-.725-.31-2-1.897C5 .034 4.76.034 4.621.207L.276 4.517c-.173.173-.173.414 0 .552L2.206 7c.966 2.034 2.208 4.448 3.208 5.62 2.034 2.38 8.793 4.173 10.827 4.621 2.07.414 2.931-2.103 1.138-3z" transform="translate(-16 -16) translate(16 16)"/>
                        <path fill="#D2D2D2" d="M32.828 14.897l-1.931-1.931c-.966-2.035-2.207-4.449-3.207-5.621C25.655 5 18.862 3.172 16.828 2.759c-2.035-.414-2.931 2.103-1.104 3 .62.31 1.586.896 2.586 1.586.793-.173 1.759 0 2.724.724.242.172.483.38.725.62.586.587 1.207 1.38 1.896 2.242.07.069.104.138.173.207.172.207.138.552-.07.724-.24.207-.586.172-.792-.069-.07-.069-.104-.138-.173-.207-.896-1.103-1.724-2.172-2.414-2.655-1.276-.931-2.276-.586-2.793.035-.414.517-.552 1.275.035 1.793.827.758 1.62 1.724 2.413 2.69.897 1.103 1.863 2.24 2.69 2.896.483.345 1.448.793 2.483 1.241l.724.31 1.931 1.932c.172.172.414.172.552 0l4.31-4.31c.242-.208.242-.449.104-.621z" transform="translate(-16 -16) translate(16 16)"/>
                    </g>
                </g>
            </g>
        </g>
    </g>
</svg>
