<?xml version="1.0" encoding="UTF-8"?>
<svg width="36px" height="36px" viewBox="0 0 36 36" version="1.1" xmlns="http://www.w3.org/2000/svg" xmlns:xlink="http://www.w3.org/1999/xlink">
    <!-- Generator: Sketch 64 (93537) - https://sketch.com -->
    <title>NotWorking</title>
    <desc>Created with Sketch.</desc>
    <g id="Page-1" stroke="none" stroke-width="1" fill="none" fill-rule="evenodd">
        <g id="Artboard" transform="translate(-84.000000, -19.000000)">
            <g id="noun_like_986841-copy" transform="translate(84.000000, 19.000000)">
                <circle id="Oval" stroke="#FF0000" cx="18" cy="18" r="17.5"></circle>
                <g id="Group" transform="translate(6.000000, 9.428571)" fill="#FF0000" fill-rule="nonzero">
                    <path d="M23.2442215,8.97022263 L16.9919518,8.97022263 C17.1547801,7.92384045 17.355313,6.59165121 17.4086581,5.63821892 C17.5038973,3.92977737 17.460886,2.01456401 16.4188411,0.763636364 C16.0487769,0.321150278 15.328199,2.13162821e-14 14.7059326,2.13162821e-14 C13.8624655,2.13162821e-14 13.3114189,0.554081633 13.2672905,1.44601113 C13.2653355,1.48719852 13.2678491,1.52894249 13.2751108,1.56957328 C13.3776116,2.15315399 13.5820546,3.83710575 13.2999679,4.61493506 C13.1315538,5.07884972 12.4123724,6.05955473 11.777817,6.92504638 C10.982947,8.00927644 10.2967223,8.94517625 10.1042889,9.54768089 C9.82722953,10.414564 9.43649759,10.7627087 8.55532584,10.9274583 C8.29111396,10.9772727 8.09951846,11.2068646 8.09951846,11.4748609 L8.09951846,19.5453618 C8.09951846,19.8492579 8.34892777,20.0969388 8.65363724,20.1019481 C8.6597817,20.1019481 9.26138042,20.1164193 9.828626,20.5249536 C10.0031846,20.6891466 10.4606677,20.9941558 11.5052263,21.0990724 C11.5110915,21.101577 11.5166774,21.1043599 11.5225425,21.1065863 C11.6208539,21.1497217 11.7688796,21.2151206 11.9467897,21.2151206 L21.288886,21.2151206 C22.2988122,21.2151206 22.9020867,20.2564007 22.9020867,19.3296846 L22.9020867,18.9264378 C22.9020867,18.6308905 22.8409213,18.3653989 22.7280867,18.1394249 C23.1975795,17.7846011 23.4606742,17.1587199 23.4606742,16.5467532 L23.4606742,16.1435065 C23.4606742,15.9514842 23.4285554,15.7758813 23.3793997,15.6116883 C23.5525618,15.5460111 23.6843884,15.3979592 23.7257239,15.214564 C24.0938331,14.8486085 24.2985554,14.3017625 24.2985554,13.7638219 L24.2985554,13.3605751 C24.2985554,13.0650278 24.23739,12.7995362 24.1245554,12.5735622 C24.5940482,12.2187384 24.8571429,11.5928571 24.8571429,10.9808905 L24.8571429,10.5776438 C24.8571429,9.616141 24.2089021,8.97022263 23.2442215,8.97022263 Z M23.7399679,10.9808905 C23.7399679,11.353525 23.5408315,11.753154 23.2442215,11.753154 L23.1813804,11.753154 L22.685634,11.753154 L17.8747994,11.753154 C17.5664591,11.753154 17.3162119,12.0025046 17.3162119,12.3097403 C17.3162119,12.6169759 17.5664591,12.8663265 17.8747994,12.8663265 L22.685634,12.8663265 C23.0378234,12.8663265 23.1813804,13.0096475 23.1813804,13.3602968 L23.1813804,13.7635436 C23.1813804,14.1364564 22.982244,14.5360853 22.685634,14.5360853 L21.8477528,14.5360853 L17.8747994,14.5360853 C17.5664591,14.5360853 17.3162119,14.785436 17.3162119,15.0926716 C17.3162119,15.3999072 17.5664591,15.6492579 17.8747994,15.6492579 L21.8477528,15.6492579 C22.1999422,15.6492579 22.3434992,15.7925788 22.3434992,16.1432282 L22.3434992,16.546475 C22.3434992,16.9193878 22.1443628,17.3190167 21.8477528,17.3190167 L21.7849117,17.3190167 L21.2891653,17.3190167 L17.8747994,17.3190167 C17.5664591,17.3190167 17.3162119,17.5683673 17.3162119,17.875603 C17.3162119,18.1828386 17.5664591,18.4321892 17.8747994,18.4321892 L21.2891653,18.4321892 C21.6413547,18.4321892 21.7849117,18.5755102 21.7849117,18.9261596 L21.7849117,19.3294063 C21.7849117,19.7023191 21.5857753,20.1019481 21.2891653,20.1019481 L12.0043242,20.1019481 C11.9942697,20.0974954 11.9842151,20.0930427 11.9741605,20.0883117 C11.9160674,20.062987 11.8440096,20.0312616 11.7602215,20.0109462 C11.73313,20.0042672 11.7054799,19.9995362 11.6775506,19.9970315 C10.9793162,19.9346939 10.6902472,19.7782931 10.6145586,19.728757 C10.5888636,19.687013 10.583557,19.6973098 10.5290947,19.656679 C10.061557,19.3071429 9.57586517,19.1407236 9.21641413,19.0608534 L9.21641413,11.9128942 C10.2215923,11.6123377 10.8170465,10.9858998 11.1683981,9.88552876 C11.3055313,9.45584416 12.0353258,8.46038961 12.6793772,7.58209647 C13.4239743,6.56688312 14.127236,5.60732839 14.3498331,4.99369202 C14.7564848,3.87384045 14.4604334,1.89072356 14.3861413,1.44517625 C14.4140706,1.13794063 14.5369599,1.11345083 14.7050947,1.11345083 C15.0413644,1.11345083 15.4360064,1.32829314 15.559175,1.4757885 C16.3534864,2.42949907 16.3755506,4.08423006 16.292321,5.57671614 C16.2378587,6.55296846 16.012748,7.99591837 15.848244,9.04981447 L15.7873579,9.4419295 C15.7625008,9.60250464 15.8094222,9.76586271 15.9152745,9.88886827 C16.0219647,10.0124304 16.1769727,10.0833952 16.339801,10.0833952 L23.2439422,10.0833952 C23.5964109,10.0833952 23.7399679,10.2267161 23.7399679,10.5773655 L23.7399679,10.9808905 Z" id="Shape" transform="translate(16.478331, 10.607560) scale(1, -1) translate(-16.478331, -10.607560) "></path>
                    <path d="M6.70304976,0.567717996 L0.55858748,0.567717996 C0.250247191,0.567717996 0,0.817068646 0,1.12430427 L0,10.5862709 C0,10.8935065 0.250247191,11.1428571 0.55858748,11.1428571 L6.70304976,11.1428571 C7.01139005,11.1428571 7.26163724,10.8935065 7.26163724,10.5862709 L7.26163724,1.12430427 C7.26163724,0.817068646 7.01139005,0.567717996 6.70304976,0.567717996 Z M6.14446228,10.0296846 L1.11717496,10.0296846 L1.11717496,1.68089054 L6.14446228,1.68089054 L6.14446228,10.0296846 Z" id="Shape"></path>
                </g>
            </g>
        </g>
    </g>
</svg>