<svg width="44" height="44" viewBox="0 0 44 44" fill="none" xmlns="http://www.w3.org/2000/svg">
<rect width="44" height="44" transform="matrix(1 0 0 -1 0 44)" fill="white"/>
<path d="M35.7949 36.4009V19.9886C35.7949 19.9881 35.7949 19.9876 35.7949 19.9871C35.7949 19.9866 35.7949 19.9861 35.7949 19.9856V17.6828C35.7949 16.0411 34.4586 14.7055 32.8161 14.7055H31.5371V13.8121H33.8405C34.257 13.8121 34.6461 13.6501 34.9367 13.3558C35.2298 13.0639 35.3911 12.6752 35.3911 12.2607V10.285C35.3911 9.8727 35.2237 9.47318 34.9317 9.18791C34.6385 8.89682 34.2513 8.73656 33.8404 8.73656H31.3511C30.5932 6.27579 29.7286 4.65178 28.7159 3.78201C27.653 2.86376 26.4054 2.75031 25.2034 3.46213C24.2967 3.99736 23.3933 5.03456 22.5188 6.54392C19.8745 11.0936 17.7757 19.2741 16.8687 25.3641C16.7509 26.1614 16.2102 26.8561 15.5231 27.0929C15.1499 27.2217 14.5869 27.2625 14.0239 26.727C13.6025 26.327 12.9188 25.3217 12.8163 22.9787C13.3602 22.8469 13.8598 22.5683 14.2667 22.1617C14.8485 21.5786 15.1688 20.8052 15.1688 19.9842C15.1688 19.1621 14.8476 18.3885 14.2645 17.8059C13.6834 17.2252 12.9095 16.9054 12.0852 16.9054C11.262 16.9054 10.4878 17.2249 9.90525 17.805C9.90501 17.8052 9.90469 17.8056 9.90445 17.8059C9.32131 18.3885 9.00008 19.1621 9 19.9842C9 20.8062 9.32115 21.5798 9.90357 22.1617C10.3157 22.5749 10.825 22.8558 11.3802 22.9849C11.4902 25.7236 12.326 27.0942 13.0355 27.7674C13.6191 28.3225 14.3216 28.6111 15.0486 28.611C15.3607 28.611 15.6773 28.5579 15.9908 28.4498C17.1896 28.0366 18.0915 26.9077 18.2883 25.5746C19.354 18.4203 21.5527 11.0623 23.7601 7.26427C24.4994 5.98812 25.2508 5.10073 25.9338 4.69746C26.6094 4.29738 27.178 4.35 27.7793 4.86944C28.3029 5.31911 29.0631 6.35584 29.8446 8.73656H27.7891C27.3829 8.73656 26.9839 8.9024 26.6992 9.18671C26.4074 9.47254 26.2401 9.87286 26.2401 10.285V12.2607C26.2401 12.6752 26.4013 13.0646 26.6893 13.3521C26.9763 13.6445 27.3771 13.8121 27.7891 13.8121H30.1019V14.7055H28.8242C27.1808 14.7055 25.8437 16.0411 25.8437 17.6828V38.0883C25.8437 39.7282 27.1808 41.0625 28.8242 41.0625H32.816C34.4586 41.0625 35.7948 39.7283 35.7948 38.0883V36.4041C35.7948 36.4035 35.7949 36.403 35.7949 36.4025C35.7949 36.4021 35.7949 36.4014 35.7949 36.4009ZM10.4351 19.9842C10.4351 19.5522 10.6113 19.1283 10.9184 18.8214C11.2301 18.5112 11.6445 18.3405 12.0852 18.3405C12.5264 18.3405 12.94 18.5111 13.2501 18.821C13.5575 19.128 13.7338 19.5519 13.7338 19.9841C13.7338 20.4224 13.5622 20.8358 13.2515 21.1473C12.9395 21.4591 12.5253 21.6308 12.0852 21.6308C11.644 21.6308 11.2301 21.4594 10.9189 21.1473C10.6069 20.8356 10.4351 20.4225 10.4351 19.9842ZM27.7085 12.3418C27.6986 12.3318 27.6753 12.3038 27.6753 12.2606V10.2849C27.6753 10.2427 27.6969 10.2183 27.7085 10.2069C27.7167 10.1986 27.747 10.1716 27.7892 10.1716H30.8001C30.8015 10.1716 30.8028 10.1716 30.8041 10.1716H33.8405C33.8801 10.1716 33.9079 10.1935 33.9209 10.2065C33.9235 10.2092 33.9262 10.2117 33.9289 10.2143C33.9371 10.2223 33.9561 10.245 33.9561 10.2849V12.2606C33.9561 12.3012 33.9358 12.3273 33.9238 12.3392C33.9212 12.3418 33.9187 12.3443 33.916 12.347C33.8966 12.3668 33.8711 12.3768 33.8406 12.3768H31.0752C30.9957 12.3465 30.9098 12.3292 30.8197 12.3292C30.7296 12.3292 30.6436 12.3466 30.5641 12.3768H27.7894C27.7492 12.3769 27.7246 12.358 27.7085 12.3418ZM27.2789 20.7047H34.3597V35.6849H27.2789V20.7047V20.7047ZM28.8242 16.1406H32.816C33.6672 16.1406 34.3596 16.8324 34.3596 17.6827V19.2695H27.2788V17.6827C27.2789 16.8324 27.972 16.1406 28.8242 16.1406ZM32.816 39.6273H28.8242C27.972 39.6273 27.2789 38.9369 27.2789 38.0882V37.1199H34.3597V38.0882C34.3597 38.9369 33.6672 39.6273 32.816 39.6273Z" fill="#0091FF"/>
<path d="M33.2599 25.9037C32.6494 25.2916 31.8348 24.9545 30.966 24.9545C30.0972 24.9545 29.2818 25.2914 28.669 25.9037C28.0565 26.5177 27.7192 27.3314 27.7192 28.1948C27.7192 29.0592 28.0574 29.8733 28.674 30.4892C29.2903 31.0991 30.1042 31.435 30.966 31.435C31.8285 31.435 32.6425 31.0975 33.2599 30.4829C33.8723 29.8687 34.2096 29.0561 34.2096 28.1948C34.2096 27.3314 33.8723 26.5177 33.2599 25.9037ZM32.2454 29.4677C31.9007 29.8109 31.4464 29.9999 30.966 29.9999C30.4848 29.9999 30.0293 29.8115 29.6859 29.4717C29.3431 29.1291 29.1543 28.6757 29.1543 28.1948C29.1543 27.714 29.3428 27.2603 29.6842 26.9179C30.0251 26.5772 30.4803 26.3895 30.9659 26.3895C31.4505 26.3895 31.9044 26.5769 32.2435 26.917C32.5858 27.2603 32.7743 27.7139 32.7743 28.1947C32.7745 28.6736 32.586 29.1263 32.2454 29.4677Z" fill="#0091FF"/>
</svg>
