<svg width="44" height="44" viewBox="0 0 44 44" fill="none" xmlns="http://www.w3.org/2000/svg">
<rect width="44" height="44" transform="matrix(1 0 0 -1 0 44)" fill="white"/>
<path d="M10.1916 23.3868C10.1916 23.4161 10.1989 23.4447 10.1989 23.4728V26.4008C10.1999 26.4778 10.216 26.5538 10.2464 26.6245C10.2768 26.6952 10.3208 26.7592 10.376 26.8128C10.4311 26.8665 10.4963 26.9087 10.5678 26.9371C10.6393 26.9656 10.7157 26.9796 10.7927 26.9784H22.5736C22.7295 26.9809 22.8801 26.9215 22.9924 26.8133C23.1047 26.7051 23.1696 26.5568 23.1728 26.4008V11.4876C23.1728 11.1638 22.8975 10.926 22.5736 10.926H10.7927C10.7166 10.9231 10.6407 10.9354 10.5695 10.9621C10.4982 10.9889 10.433 11.0297 10.3777 11.082C10.3224 11.1343 10.2781 11.1971 10.2474 11.2668C10.2167 11.3364 10.2002 11.4115 10.1989 11.4876V14.5049C10.1989 14.5331 10.1916 14.5616 10.1916 14.591C10.1916 14.6203 10.1989 14.6489 10.1989 14.677V16.7039C10.1989 16.732 10.1916 16.7606 10.1916 16.7899C10.1916 16.8192 10.1989 16.8478 10.1989 16.876V18.9028C10.1989 18.931 10.1916 18.9596 10.1916 18.9889C10.1916 19.0182 10.1989 19.0468 10.1989 19.0749V21.1018C10.1989 21.1299 10.1916 21.1585 10.1916 21.1878C10.1916 21.2172 10.1989 21.2457 10.1989 21.2739V23.3007C10.1989 23.3289 10.1916 23.3575 10.1916 23.3868ZM22 12.0988V25.8057H11.3717V23.9732H13.2775C13.433 23.9732 13.5822 23.9114 13.6921 23.8014C13.8021 23.6915 13.8639 23.5423 13.8639 23.3868C13.8639 23.2313 13.8021 23.0821 13.6921 22.9722C13.5822 22.8622 13.433 22.8004 13.2775 22.8004H11.3717V21.7742H11.8115C11.967 21.7742 12.1162 21.7124 12.2262 21.6025C12.3361 21.4925 12.3979 21.3434 12.3979 21.1878C12.3979 21.0323 12.3361 20.8832 12.2262 20.7732C12.1162 20.6632 11.967 20.6014 11.8115 20.6014H11.3717V19.5753H13.2775C13.433 19.5753 13.5822 19.5135 13.6921 19.4035C13.8021 19.2935 13.8639 19.1444 13.8639 18.9889C13.8639 18.8334 13.8021 18.6842 13.6921 18.5742C13.5822 18.4643 13.433 18.4025 13.2775 18.4025H11.3717V17.3763H11.8115C11.967 17.3763 12.1162 17.3145 12.2262 17.2046C12.3361 17.0946 12.3979 16.9454 12.3979 16.7899C12.3979 16.6344 12.3361 16.4852 12.2262 16.3753C12.1162 16.2653 11.967 16.2035 11.8115 16.2035H11.3717V15.1773H13.2775C13.433 15.1773 13.5822 15.1156 13.6921 15.0056C13.8021 14.8956 13.8639 14.7465 13.8639 14.591C13.8639 14.4354 13.8021 14.2863 13.6921 14.1763C13.5822 14.0663 13.433 14.0046 13.2775 14.0046H11.3717V12.0988H22Z" fill="#0091FF"/>
<path d="M35.4067 19.0621H34.0943V6.78462C34.0943 5.24879 32.8238 4.03592 31.2879 4.03592H19.1638C19.0878 4.03387 19.0121 4.04702 18.9413 4.07461C18.8704 4.10221 18.8058 4.14368 18.7511 4.19659C18.6965 4.24951 18.653 4.3128 18.6232 4.38276C18.5933 4.45272 18.5778 4.52793 18.5774 4.60398C18.5752 5.00801 18.4435 5.4007 18.2017 5.72438C17.9599 6.04807 17.6207 6.28572 17.2339 6.40244C16.869 6.27989 16.474 6.27989 16.1091 6.40244C15.7161 6.28732 15.3708 6.04844 15.1244 5.72133C14.8781 5.39421 14.7439 4.99633 14.7418 4.58683C14.7418 4.50982 14.7267 4.43356 14.6973 4.36239C14.6679 4.29123 14.6248 4.22655 14.5704 4.17206C14.5159 4.11757 14.4513 4.07433 14.3802 4.0448C14.3091 4.01528 14.2328 4.00006 14.1558 4C14.0788 3.99994 14.0026 4.01505 13.9314 4.04447C13.8602 4.07388 13.7956 4.11703 13.7411 4.17144C13.6866 4.22585 13.6433 4.29046 13.6138 4.36158C13.5843 4.4327 13.5691 4.50894 13.569 4.58595C13.5699 5.11067 13.7047 5.62648 13.9606 6.08456C14.2165 6.54264 14.5851 6.92783 15.0315 7.20366C14.6908 7.64868 14.4684 8.17278 14.385 8.72703H8.59372C8.51765 8.72409 8.44177 8.73637 8.37051 8.76315C8.29925 8.78993 8.23406 8.83068 8.17876 8.88299C8.12346 8.9353 8.07916 8.99813 8.04846 9.06779C8.01777 9.13744 8.00129 9.21253 8 9.28865V28.5998C8.00096 28.6767 8.01708 28.7527 8.04746 28.8234C8.07783 28.8941 8.12186 28.9581 8.17701 29.0118C8.23216 29.0654 8.29736 29.1077 8.36886 29.1361C8.44037 29.1645 8.51678 29.1785 8.59372 29.1774H11.9581V30.852C11.9581 31.1758 12.2563 31.4496 12.5802 31.4496H16.0629V32.6957H15.0431C14.8844 32.7012 14.7339 32.768 14.6234 32.882C14.5128 32.9961 14.4508 33.1486 14.4503 33.3074V37.3795C14.4514 37.5364 14.5142 37.6867 14.6251 37.7977C14.736 37.9088 14.8862 37.9718 15.0431 37.9732H16.0629V39.6957C16.0629 39.8512 16.1246 40.0004 16.2346 40.1104C16.3446 40.2203 16.4937 40.2821 16.6492 40.2821C16.8048 40.2821 16.9539 40.2203 17.0639 40.1104C17.1739 40.0004 17.2356 39.8512 17.2356 39.6957V37.9732H18.2293C18.5531 37.9732 18.8482 37.7035 18.8482 37.3795V33.3074C18.8418 33.146 18.7744 32.993 18.6595 32.8794C18.5445 32.7659 18.3908 32.7002 18.2293 32.6957H17.2356V31.4496H20.7858C21.1097 31.4496 21.3404 31.1758 21.3404 30.852V29.1774H24.7726C24.9285 29.1798 25.0791 29.1204 25.1914 29.0122C25.3036 28.904 25.3685 28.7557 25.3718 28.5998V9.28865C25.3718 8.96481 25.0964 8.72703 24.7726 8.72703H18.9809C18.8947 8.17066 18.6668 7.64583 18.3191 7.203C18.6687 6.97805 18.9702 6.68595 19.2062 6.34361C19.4421 6.00127 19.6077 5.61552 19.6935 5.2087H31.2879C32.1771 5.2087 32.9215 5.89543 32.9215 6.78462V19.0621H31.3016C31.225 19.0623 31.1492 19.0777 31.0786 19.1073C31.0079 19.1369 30.9438 19.1802 30.89 19.2347C30.8362 19.2893 30.7937 19.3539 30.7649 19.4249C30.7362 19.4959 30.7218 19.5719 30.7226 19.6485V39.5125C30.7218 39.5891 30.7362 39.6651 30.7649 39.7361C30.7937 39.8071 30.8362 39.8717 30.89 39.9263C30.9438 39.9808 31.0079 40.0241 31.0786 40.0537C31.1492 40.0833 31.225 40.0987 31.3016 40.0989H35.4064C35.5627 40.0992 35.7128 40.0378 35.824 39.9279C35.9352 39.8181 35.9985 39.6688 36.0001 39.5125V19.6485C35.9985 19.4923 35.9353 19.343 35.8241 19.2332C35.713 19.1234 35.563 19.0619 35.4067 19.0621ZM17.6754 36.8004H15.6231V33.8685H17.6754V36.8004ZM20.1676 30.2768H13.1309V29.2507H20.1676V30.2768ZM24.199 28.0046H9.17278V9.89981H24.199V28.0046ZM17.7823 8.72703H15.5833C15.7012 8.21394 15.9524 7.84363 16.252 7.63789C16.3872 7.65378 16.5232 7.66089 16.6592 7.65914C16.8083 7.66207 16.9575 7.65433 17.1055 7.63598C17.4089 7.84012 17.6634 8.21394 17.7823 8.72703ZM34.8273 20.2349V30.8632H31.8954V20.2349H34.8273ZM31.8954 38.9261V32.036H34.8273V38.9261H31.8954Z" fill="#0091FF"/>
</svg>
