<svg xmlns="http://www.w3.org/2000/svg" width="28" height="28" viewBox="0 0 28 28">
    <g fill="none" fill-rule="evenodd">
        <g transform="translate(-209 -12)">
            <circle cx="223" cy="26" r="13.5" stroke="#979797"/>
            <g>
                <path d="M0 0H19V19H0z" transform="translate(213 16)"/>
                <path fill="#FFF" d="M14.427 10.76c-1.17.001-2.269.585-2.935 1.561l-4.427-2.284c-.09-.046-.19-.07-.29-.07-.351 0-.64.292-.64.648 0 .243.136.467.35.577l4.477 2.31c-.071.287-.107.582-.107.878 0 1.986 1.613 3.62 3.573 3.62S18 16.366 18 14.38c0-1.986-1.613-3.62-3.572-3.62zm0 5.95h-.001c-1.26 0-2.297-1.05-2.297-2.327 0-1.276 1.037-2.326 2.297-2.326 1.26 0 2.296 1.05 2.296 2.326-.001 1.276-1.036 2.325-2.295 2.327zM6.64 8.952c.117 0 .232-.033.332-.095l5.833-3.606c.442.403 1.015.626 1.61.626 1.32 0 2.406-1.1 2.406-2.439C16.82 2.101 15.734 1 14.413 1c-1.32 0-2.406 1.1-2.406 2.438 0 .245.036.488.107.721L6.305 7.751c-.19.118-.305.327-.305.553 0 .355.288.648.639.648zm7.788-6.674h.001c.627 0 1.143.523 1.143 1.158 0 .636-.516 1.158-1.143 1.158s-1.143-.522-1.143-1.158c0-.635.516-1.157 1.142-1.158z" transform="translate(213 16)"/>
                <path fill="#FFF" d="M4.003 13H4c-1.646 0-3-1.354-3-3s1.354-3 3-3 3 1.354 3 3c-.001 1.644-1.353 2.997-2.997 3zm0-4.823H4c-1 0-1.823.823-1.823 1.823s.823 1.823 1.823 1.823S5.824 11 5.824 10s-.822-1.822-1.821-1.823z" transform="translate(213 16)"/>
            </g>
        </g>
    </g>
</svg>
