<?xml version="1.0" encoding="UTF-8"?>
<svg width="36px" height="36px" viewBox="0 0 36 36" version="1.1" xmlns="http://www.w3.org/2000/svg" xmlns:xlink="http://www.w3.org/1999/xlink">
    <!-- Generator: Sketch 64 (93537) - https://sketch.com -->
    <title>Working</title>
    <desc>Created with Sketch.</desc>
    <g id="Page-1" stroke="none" stroke-width="1" fill="none" fill-rule="evenodd">
        <g id="Artboard" transform="translate(-19.000000, -19.000000)">
            <g id="noun_like_986841" transform="translate(19.000000, 19.000000)">
                <circle id="Oval" stroke="#0DAA18" cx="18" cy="18" r="17.5"></circle>
                <g id="Group" transform="translate(5.142857, 4.285714)" fill="#0DAA18" fill-rule="nonzero">
                    <path d="M23.2442215,9.18367347 L16.9919518,9.18367347 C17.1547801,8.13729128 17.355313,6.80510204 17.4086581,5.85166976 C17.5038973,4.1432282 17.460886,2.22801484 16.4188411,0.977087199 C16.0487769,0.534601113 15.328199,0.213450835 14.7059326,0.213450835 C13.8624655,0.213450835 13.3114189,0.767532468 13.2672905,1.65946197 C13.2653355,1.70064935 13.2678491,1.74239332 13.2751108,1.78302412 C13.3776116,2.36660482 13.5820546,4.05055659 13.2999679,4.8283859 C13.1315538,5.29230056 12.4123724,6.27300557 11.777817,7.13849722 C10.982947,8.22272727 10.2967223,9.15862709 10.1042889,9.76113173 C9.82722953,10.6280148 9.43649759,10.9761596 8.55532584,11.1409091 C8.29111396,11.1907236 8.09951846,11.4203154 8.09951846,11.6883117 L8.09951846,19.7588126 C8.09951846,20.0627087 8.34892777,20.3103896 8.65363724,20.3153989 C8.6597817,20.3153989 9.26138042,20.3298701 9.828626,20.7384045 C10.0031846,20.9025974 10.4606677,21.2076067 11.5052263,21.3125232 C11.5110915,21.3150278 11.5166774,21.3178108 11.5225425,21.3200371 C11.6208539,21.3631725 11.7688796,21.4285714 11.9467897,21.4285714 L21.288886,21.4285714 C22.2988122,21.4285714 22.9020867,20.4698516 22.9020867,19.5431354 L22.9020867,19.1398887 C22.9020867,18.8443414 22.8409213,18.5788497 22.7280867,18.3528757 C23.1975795,17.9980519 23.4606742,17.3721707 23.4606742,16.7602041 L23.4606742,16.3569573 C23.4606742,16.1649351 23.4285554,15.9893321 23.3793997,15.8251391 C23.5525618,15.759462 23.6843884,15.61141 23.7257239,15.4280148 C24.0938331,15.0620594 24.2985554,14.5152134 24.2985554,13.9772727 L24.2985554,13.574026 C24.2985554,13.2784787 24.23739,13.012987 24.1245554,12.787013 C24.5940482,12.4321892 24.8571429,11.806308 24.8571429,11.1943414 L24.8571429,10.7910946 C24.8571429,9.82959184 24.2089021,9.18367347 23.2442215,9.18367347 Z M23.7399679,11.1943414 C23.7399679,11.5669759 23.5408315,11.9666048 23.2442215,11.9666048 L23.1813804,11.9666048 L22.685634,11.9666048 L17.8747994,11.9666048 C17.5664591,11.9666048 17.3162119,12.2159555 17.3162119,12.5231911 C17.3162119,12.8304267 17.5664591,13.0797774 17.8747994,13.0797774 L22.685634,13.0797774 C23.0378234,13.0797774 23.1813804,13.2230983 23.1813804,13.5737477 L23.1813804,13.9769944 C23.1813804,14.3499072 22.982244,14.7495362 22.685634,14.7495362 L21.8477528,14.7495362 L17.8747994,14.7495362 C17.5664591,14.7495362 17.3162119,14.9988868 17.3162119,15.3061224 C17.3162119,15.6133581 17.5664591,15.8627087 17.8747994,15.8627087 L21.8477528,15.8627087 C22.1999422,15.8627087 22.3434992,16.0060297 22.3434992,16.356679 L22.3434992,16.7599258 C22.3434992,17.1328386 22.1443628,17.5324675 21.8477528,17.5324675 L21.7849117,17.5324675 L21.2891653,17.5324675 L17.8747994,17.5324675 C17.5664591,17.5324675 17.3162119,17.7818182 17.3162119,18.0890538 C17.3162119,18.3962894 17.5664591,18.6456401 17.8747994,18.6456401 L21.2891653,18.6456401 C21.6413547,18.6456401 21.7849117,18.788961 21.7849117,19.1396104 L21.7849117,19.5428571 C21.7849117,19.9157699 21.5857753,20.3153989 21.2891653,20.3153989 L12.0043242,20.3153989 C11.9942697,20.3109462 11.9842151,20.3064935 11.9741605,20.3017625 C11.9160674,20.2764378 11.8440096,20.2447124 11.7602215,20.224397 C11.73313,20.217718 11.7054799,20.212987 11.6775506,20.2104824 C10.9793162,20.1481447 10.6902472,19.991744 10.6145586,19.9422078 C10.5888636,19.9004638 10.583557,19.9107607 10.5290947,19.8701299 C10.061557,19.5205937 9.57586517,19.3541744 9.21641413,19.2743043 L9.21641413,12.1263451 C10.2215923,11.8257885 10.8170465,11.1993506 11.1683981,10.0989796 C11.3055313,9.66929499 12.0353258,8.67384045 12.6793772,7.79554731 C13.4239743,6.78033395 14.127236,5.82077922 14.3498331,5.20714286 C14.7564848,4.08729128 14.4604334,2.1041744 14.3861413,1.65862709 C14.4140706,1.35139147 14.5369599,1.32690167 14.7050947,1.32690167 C15.0413644,1.32690167 15.4360064,1.54174397 15.559175,1.68923933 C16.3534864,2.64294991 16.3755506,4.29768089 16.292321,5.79016698 C16.2378587,6.76641929 16.012748,8.2093692 15.848244,9.26326531 L15.7873579,9.65538033 C15.7625008,9.81595547 15.8094222,9.97931354 15.9152745,10.1023191 C16.0219647,10.2258813 16.1769727,10.296846 16.339801,10.296846 L23.2439422,10.296846 C23.5964109,10.296846 23.7399679,10.440167 23.7399679,10.7908163 L23.7399679,11.1943414 Z" id="Shape"></path>
                    <path d="M6.70304976,10.8534323 L0.55858748,10.8534323 C0.250247191,10.8534323 0,11.1027829 0,11.4100186 L0,20.8719852 C0,21.1792208 0.250247191,21.4285714 0.55858748,21.4285714 L6.70304976,21.4285714 C7.01139005,21.4285714 7.26163724,21.1792208 7.26163724,20.8719852 L7.26163724,11.4100186 C7.26163724,11.1027829 7.01139005,10.8534323 6.70304976,10.8534323 Z M6.14446228,20.3153989 L1.11717496,20.3153989 L1.11717496,11.9666048 L6.14446228,11.9666048 L6.14446228,20.3153989 Z" id="Shape"></path>
                </g>
            </g>
        </g>
    </g>
</svg>